<svg width="106" height="33" xmlns="http://www.w3.org/2000/svg">

 <g>
  <title>background</title>
  <rect fill="none" id="canvas_background" height="35" width="108" y="-1" x="-1"/>
 </g>
 <g>
  <title>Layer 1</title>
  <path id="svg_1" fill="white" d="m0,6.73727l0,25.87113l3.75838,0l0,-18.7338l0.24289,0l7.72133,18.6959l3.1192,0l7.7213,-18.6833l0.2429,0l0,18.7212l3.7583,0l0,-25.87113l-4.7938,0l-8.3349,20.11073l-0.3068,0l-8.33495,-20.11073l-4.79385,0z"/>
  <path id="svg_2" fill="white" d="m41.1313,33c4.2825,0 7.3122,-2.0843 8.1815,-5.2424l-3.6178,-0.6443c-0.6903,1.8317 -2.3522,2.7665 -4.5254,2.7665c-3.2726,0 -5.4714,-2.097 -5.5736,-5.8362l13.9597,0l0,-1.339c0,-7.011 -4.2442,-9.7522 -8.6929,-9.7522c-5.4714,0 -9.0764,4.1182 -9.0764,10.0806c0,6.0257 3.5539,9.967 9.3449,9.967zm-5.5225,-11.786c0.1534,-2.7539 2.1732,-5.1414 5.2796,-5.1414c2.9658,0 4.9089,2.1728 4.9217,5.1414l-10.2013,0z"/>
  <path id="svg_3" fill="white" d="m68.5106,17.9422c-0.7926,-3.0191 -3.1831,-4.9898 -7.4273,-4.9898c-4.4359,0 -7.5807,2.3117 -7.5807,5.7477c0,2.7539 1.6874,4.5856 5.3691,5.3941l3.3238,0.72c1.8919,0.4169 2.774,1.2506 2.774,2.4633c0,1.5033 -1.6235,2.6781 -4.1291,2.6781c-2.2883,0 -3.7584,-0.9727 -4.2186,-2.8802l-3.6945,0.5558c0.6392,3.436 3.5283,5.3688 7.9387,5.3688c4.7427,0 8.0281,-2.4886 8.0281,-6.0004c0,-2.7412 -1.7642,-4.434 -5.3691,-5.2551l-3.1192,-0.7074c-2.1605,-0.5053 -3.0937,-1.2253 -3.0809,-2.5391c-0.0128,-1.4906 1.6235,-2.5517 3.7967,-2.5517c2.3778,0 3.4772,1.3011 3.9246,2.6023l3.4644,-0.6064z"/>
  <path id="svg_4" fill="white" d="m82.2625,13.2051l-4.0268,0l0,-4.64877l-3.8223,0l0,4.64877l-2.8763,0l0,3.0317l2.8763,0l0,11.4576c-0.0128,3.5244 2.7101,5.2298 5.7271,5.1666c1.2144,-0.0126 2.0326,-0.24 2.48,-0.4042l-0.6903,-3.1202c-0.2557,0.0505 -0.7287,0.1642 -1.3423,0.1642c-1.24,0 -2.3522,-0.4042 -2.3522,-2.5896l0,-10.6744l4.0268,0l0,-3.0317z"/>
  <path id="svg_5" fill="white" d="m94.5508,33c5.5352,0 9.1532,-4.0045 9.1532,-10.0049c0,-6.0382 -3.618,-10.0427 -9.1532,-10.0427c-5.5353,0 -9.1531,4.0045 -9.1531,10.0427c0,6.0004 3.6178,10.0049 9.1531,10.0049zm0.0128,-3.1707c-3.6178,0 -5.3052,-3.1202 -5.3052,-6.8468c0,-3.7139 1.6874,-6.872 5.3052,-6.872c3.5922,0 5.2796,3.1581 5.2796,6.872c0,3.7266 -1.6874,6.8468 -5.2796,6.8468z"/>
  <path id="svg_6" fill="white" d="m107.176,8.8932l1.057,0l0,-3.36864l1.909,0c0.077,0 0.149,0 0.222,-0.00421l1.841,3.37285l1.227,0l-1.973,-3.56233c1.112,-0.37476 1.632,-1.27166 1.632,-2.417c0,-1.52431 -0.92,-2.64438 -2.966,-2.64438l-2.949,0l0,8.62371zm1.057,-4.31185l0,-3.38548l1.858,0c1.415,0 1.96,0.68214 1.96,1.718c0,1.03586 -0.545,1.66748 -1.943,1.66748l-1.875,0z"/>
  <path id="svg_7" fill="white" d="m118.84,6.24882c0,1.21271 -0.937,1.76853 -1.687,1.76853c-0.835,0 -1.432,-0.60635 -1.432,-1.54957l0,-4.04236l-1.005,0l0,4.10973c0,1.65064 0.886,2.44227 2.113,2.44227c0.989,0 1.636,-0.52214 1.943,-1.17903l0.068,0l0,1.09481l1.006,0l0,-6.46778l-1.006,0l0,3.8234z"/>
  <path id="svg_8" fill="white" d="m126.324,3.87393c-0.315,-0.91795 -1.023,-1.53273 -2.318,-1.53273c-1.381,0 -2.403,0.77479 -2.403,1.86959c0,0.89269 0.537,1.49063 1.738,1.76854l1.091,0.25265c0.661,0.15159 0.972,0.46318 0.972,0.90953c0,0.55582 -0.597,1.01059 -1.534,1.01059c-0.823,0 -1.338,-0.3495 -1.517,-1.04428l-0.955,0.23581c0.235,1.09901 1.151,1.68432 2.489,1.68432c1.521,0 2.556,-0.82111 2.556,-1.93697c0,-0.90111 -0.571,-1.46957 -1.738,-1.75169l-0.972,-0.23581c-0.775,-0.18948 -1.125,-0.44634 -1.125,-0.94321c0,-0.55583 0.597,-0.96007 1.398,-0.96007c0.878,0 1.24,0.48003 1.415,0.92638l0.903,-0.25265z"/>
  <path id="svg_9" fill="white" d="m132.593,3.87393c-0.315,-0.91795 -1.022,-1.53273 -2.318,-1.53273c-1.38,0 -2.403,0.77479 -2.403,1.86959c0,0.89269 0.537,1.49063 1.739,1.76854l1.09,0.25265c0.661,0.15159 0.972,0.46318 0.972,0.90953c0,0.55582 -0.597,1.01059 -1.534,1.01059c-0.822,0 -1.338,-0.3495 -1.517,-1.04428l-0.955,0.23581c0.235,1.09901 1.151,1.68432 2.489,1.68432c1.521,0 2.557,-0.82111 2.557,-1.93697c0,-0.90111 -0.571,-1.46957 -1.739,-1.75169l-0.971,-0.23581c-0.776,-0.18948 -1.125,-0.44634 -1.125,-0.94321c0,-0.55583 0.596,-0.96007 1.397,-0.96007c0.878,0 1.24,0.48003 1.415,0.92638l0.903,-0.25265z"/>
  <path id="svg_10" fill="white" d="m134.227,8.8932l1.005,0l0,-6.46778l-1.005,0l0,6.46778zm0.511,-7.54575c0.392,0 0.716,-0.30317 0.716,-0.67372c0,-0.37055 -0.324,-0.67373 -0.716,-0.67373c-0.392,0 -0.716,0.30318 -0.716,0.67373c0,0.37055 0.324,0.67372 0.716,0.67372z"/>
  <path id="svg_11" fill="white" d="m139,9.04479c1.142,0 1.739,-0.60636 1.943,-1.02744l0.051,0l0,0.87585l1.006,0l0,-4.26133c0,-2.05486 -1.585,-2.29067 -2.42,-2.29067c-0.989,0 -2.114,0.33687 -2.625,1.51589l0.954,0.33686c0.222,-0.47161 0.746,-0.9769 1.705,-0.9769c0.924,0 1.38,0.48424 1.38,1.31377l0,0.03368c0,0.48003 -0.494,0.43792 -1.687,0.58951c-1.215,0.1558 -2.54,0.42108 -2.54,1.90328c0,1.26324 0.989,1.9875 2.233,1.9875zm0.154,-0.89269c-0.802,0 -1.381,-0.35371 -1.381,-1.04428c0,-0.75794 0.699,-0.99375 1.483,-1.0948c0.426,-0.05053 1.568,-0.16844 1.738,-0.37055l0,0.90953c0,0.80847 -0.647,1.6001 -1.84,1.6001z"/>
 </g>
</svg>